# xmcd
#
# Track frame offsets:
#	150
#	23154
#	41222
#	64020
#	89777
#	106119
#	123033
#	146033
#	164188
#
# Disc length: 2521 seconds
#
# Revision: 1
# Processed by: cddbd v1.5.2PL0 Copyright (c) Steve Scherf et al.
# Submitted via: audiograbber 1.83.01
#
DISCID=7f09d709
DTITLE=Joseph Huber - Bury Me Where I Fall
DYEAR=2010
DGENRE=Country
TTITLE0=Bury Me Where I Fall
TTITLE1=Riddler's Song
TTITLE2=Bell On A Rope
TTITLE3=Death Cruel Shadow
TTITLE4=Better Than Before
TTITLE5=Downtime
TTITLE6=Slow Death March
TTITLE7=Can't You See a Flood's A-Comin'
TTITLE8=The Ancient Lake
EXTD=
EXTT0=
EXTT1=
EXTT2=
EXTT3=
EXTT4=
EXTT5=
EXTT6=
EXTT7=
EXTT8=
PLAYORDER=
